<?xml version="1.0" encoding="UTF-8"?>
<svg width="1089.5" height="701.78" contentStyleType="text/css" inkscape:version="1.1.2 (0a00cf5339, 2022-02-04)" preserveAspectRatio="none" sodipodi:docname="class-model.svg" version="1.1" viewBox="0 0 1089.5 701.78" xmlns="http://www.w3.org/2000/svg" xmlns:inkscape="http://www.inkscape.org/namespaces/inkscape" xmlns:sodipodi="http://sodipodi.sourceforge.net/DTD/sodipodi-0.dtd" zoomAndPan="magnify">
 <sodipodi:namedview bordercolor="#666666" borderopacity="1.0" fit-margin-bottom="0" fit-margin-left="0" fit-margin-right="0" fit-margin-top="0" inkscape:current-layer="svg242" inkscape:cx="789.0625" inkscape:cy="332.03125" inkscape:lockguides="true" inkscape:pagecheckerboard="0" inkscape:pageopacity="0.0" inkscape:pageshadow="2" inkscape:window-height="1016" inkscape:window-maximized="1" inkscape:window-width="1920" inkscape:window-x="1920" inkscape:window-y="27" inkscape:zoom="0.64" pagecolor="#ffffff" showgrid="false"/>
 <g id="a" transform="translate(232.19 594.64)">
  <rect id="b" x="311.5" y="18.15" width="219" height="80.594" rx="2.5" ry="2.5" fill="#f1f1f1" stroke="#181818" stroke-width=".5" codeLine="1"/>
  <circle cx="347.65" cy="34.15" r="11" fill="#b4a7e5" stroke="#181818"/>
  <path d="m343.57 29.916v-2.1562h7.3906v2.1562h-2.4687v8.0782h2.4687v2.1562h-7.3906v-2.1562h2.4687v-8.0782z"/>
  <text x="366.35001" y="38.9967" fill="#000000" font-family="sans-serif" font-size="14px" font-style="italic" textLength="67">IDrawable</text>
  <rect x="462.5" y="15.15" width="71" height="15.969" fill="#fff" stroke="#181818" stroke-dasharray="2, 2"/>
  <text x="463.5" y="27.2887" fill="#000000" font-family="sans-serif" font-size="12px" font-style="italic" textLength="69">ShapeType</text>
  <line x1="312.5" x2="529.5" y1="50.15" y2="50.15" stroke="#181818" stroke-width=".5"/>
  <line x1="312.5" x2="529.5" y1="58.15" y2="58.15" stroke="#181818" stroke-width=".5"/>
  <circle cx="322.5" cy="71.798" r="3" fill="#84be84" stroke="#038048"/>
  <text x="331.5" y="75.145103" fill="#000000" font-family="sans-serif" font-size="14px" textLength="193">draw(target : RenderTarget)</text>
  <circle cx="322.5" cy="88.095" r="3" fill="#84be84" stroke="#038048"/>
  <text x="331.5" y="91.442001" fill="#000000" font-family="sans-serif" font-size="14px" textLength="89">IDrawable(...)</text>
 </g>
 <g transform="translate(-240.48 -503.66)">
  <rect id="c" x="441.23" y="1108.3" width="268" height="96.891" rx="2.5" ry="2.5" fill="#f1f1f1" stroke="#181818" stroke-width=".5" codeLine="6"/>
  <circle cx="500.98" cy="1124.3" r="11" fill="#b4a7e5" stroke="#181818"/>
  <path d="m496.9 1120.1v-2.1562h7.3906v2.1562h-2.4687v8.0782h2.4687v2.1562h-7.3906v-2.1562h2.4687v-8.0782z"/>
  <text transform="translate(-249.77 1098.3)" x="771.25" y="30.846701" fill="#000000" font-family="sans-serif" font-size="14px" font-style="italic" textLength="73">IUpdatable</text>
  <rect x="647.23" y="1105.3" width="65" height="15.969" fill="#fff" stroke="#181818" stroke-dasharray="2, 2"/>
  <text transform="translate(-249.77 1098.3)" x="898" y="19.1387" fill="#000000" font-family="sans-serif" font-size="12px" font-style="italic" textLength="63">StateType</text>
  <line x1="442.23" x2="708.23" y1="1140.3" y2="1140.3" stroke="#181818" stroke-width=".5"/>
  <line x1="442.23" x2="708.23" y1="1148.3" y2="1148.3" stroke="#181818" stroke-width=".5"/>
  <circle cx="452.23" cy="1161.9" r="3" fill="#84be84" stroke="#038048"/>
  <text transform="translate(-249.77 1098.3)" x="711" y="66.995102" fill="#000000" font-family="sans-serif" font-size="14px" textLength="135">update(delta : float)</text>
  <circle cx="452.23" cy="1178.2" r="3" fill="#84be84" stroke="#038048"/>
  <text transform="translate(-249.77 1098.3)" x="711" y="83.292" fill="#000000" font-family="sans-serif" font-size="14px" textLength="46">reset()</text>
  <circle cx="452.23" cy="1194.5" r="3" fill="#84be84" stroke="#038048"/>
  <text transform="translate(-249.77 1098.3)" x="711" y="99.588898" fill="#000000" font-family="sans-serif" font-size="14px" textLength="242">IUpdatable(initial_state : StateType)</text>
 </g>
 <g id="d" transform="translate(-465.88 132.12)">
  <rect id="e" x="713" y="175.04" width="474" height="80.594" rx="2.5" ry="2.5" fill="#f1f1f1" stroke="#181818" stroke-width=".5" codeLine="12"/>
  <circle cx="791.75" cy="191.04" r="11" fill="#b4a7e5" stroke="#181818"/>
  <path d="m787.67 186.81v-2.1562h7.3906v2.1562h-2.4687v8.0782h2.4687v2.1562h-7.3906v-2.1562h2.4687v-8.0782z"/>
  <text x="812.25" y="195.8867" fill="#000000" font-family="sans-serif" font-size="14px" font-style="italic" textLength="79">IAnimatable</text>
  <rect x="963" y="172.04" width="227" height="15.969" fill="#fff" stroke="#181818" stroke-dasharray="2, 2"/>
  <text x="964" y="184.1787" fill="#000000" font-family="sans-serif" font-size="12px" font-style="italic" textLength="225">VelocityType, StateType, ShapeType</text>
  <line x1="714" x2="1186" y1="207.04" y2="207.04" stroke="#181818" stroke-width=".5"/>
  <line x1="714" x2="1186" y1="215.04" y2="215.04" stroke="#181818" stroke-width=".5"/>
  <circle cx="724" cy="228.69" r="3" fill="#84be84" stroke="#038048"/>
  <text x="733" y="232.0351" fill="#000000" font-family="sans-serif" font-size="14px" textLength="135">update(delta : float)</text>
  <circle cx="724" cy="244.99" r="3" fill="#84be84" stroke="#038048"/>
  <text x="733" y="248.332" fill="#000000" font-family="sans-serif" font-size="14px" textLength="448">IAnimatable(initial_velocity : VelocityType, initial_state : StateType)</text>
 </g>
 <g id="f" transform="translate(-39.25 -182.94)">
  <rect id="g" x="371.5" y="183.19" width="307" height="64.297" rx="2.5" ry="2.5" fill="#f1f1f1" stroke="#181818" stroke-width=".5" codeLine="17"/>
  <circle cx="481.75" cy="199.19" r="11" fill="#b4a7e5" stroke="#181818"/>
  <path d="m477.67 194.96v-2.1562h7.3906v2.1562h-2.4687v8.0782h2.4687v2.1562h-7.3906v-2.1562h2.4687v-8.0782z"/>
  <text x="502.25" y="204.0367" fill="#000000" font-family="sans-serif" font-size="14px" font-style="italic" textLength="78">ICollideable</text>
  <line x1="372.5" x2="677.5" y1="215.19" y2="215.19" stroke="#181818" stroke-width=".5"/>
  <line x1="372.5" x2="677.5" y1="223.19" y2="223.19" stroke="#181818" stroke-width=".5"/>
  <circle cx="382.5" cy="236.84" r="3" fill="#84be84" stroke="#038048"/>
  <text x="391.5" y="240.1851" fill="#000000" font-family="sans-serif" font-size="14px" textLength="281">isColliding(candidate : ICollideable) : bool</text>
 </g>
 <g id="h" transform="translate(646.25 -217.68)">
  <rect id="i" x="49" y="348.23" width="394" height="64.297" rx="2.5" ry="2.5" fill="#f1f1f1" stroke="#181818" stroke-width=".5" codeLine="21"/>
  <circle cx="228.25" cy="364.23" r="11" fill="#add1b2" stroke="#181818"/>
  <path d="m231.22 369.87q-0.5782 0.2969-1.2188 0.4375-0.6406 0.1563-1.3437 0.1563-2.5 0-3.8282-1.6406-1.3125-1.6563-1.3125-4.7813t1.3125-4.7812q1.3282-1.6563 3.8282-1.6563 0.7031 0 1.3437 0.1563 0.6563 0.1562 1.2188 0.4531v2.7187q-0.625-0.5781-1.2188-0.8437-0.5937-0.2813-1.2187-0.2813-1.3438 0-2.0313 1.0782-0.6875 1.0625-0.6875 3.1562 0 2.0938 0.6875 3.1719 0.6875 1.0625 2.0313 1.0625 0.625 0 1.2187-0.2656 0.5938-0.2813 1.2188-0.8594z"/>
  <text x="248.75" y="369.07669" fill="#000000" font-family="sans-serif" font-size="14px" textLength="27">Wall</text>
  <line x1="50" x2="442" y1="380.23" y2="380.23" stroke="#181818" stroke-width=".5"/>
  <line x1="50" x2="442" y1="388.23" y2="388.23" stroke="#181818" stroke-width=".5"/>
  <circle cx="60" cy="401.88" r="3" fill="#84be84" stroke="#038048"/>
  <text x="69" y="405.2251" fill="#000000" font-family="sans-serif" font-size="14px" textLength="368">Wall(position : Vector2&lt;float&gt;, size : Vector2&lt;float&gt;)</text>
 </g>
 <g id="j" transform="translate(311.35 280.86)">
  <rect id="k" x="7" y="166.89" width="330" height="96.891" rx="2.5" ry="2.5" fill="#f1f1f1" stroke="#181818" stroke-width=".5" codeLine="25"/>
  <circle cx="147.75" cy="182.89" r="11" fill="#add1b2" stroke="#181818"/>
  <path d="m150.72 188.53q-0.5782 0.2969-1.2188 0.4375-0.6406 0.1563-1.3437 0.1563-2.5 0-3.8282-1.6406-1.3125-1.6563-1.3125-4.7813t1.3125-4.7812q1.3282-1.6563 3.8282-1.6563 0.7031 0 1.3437 0.1563 0.6563 0.1562 1.2188 0.4531v2.7187q-0.625-0.5781-1.2188-0.8437-0.5937-0.2813-1.2187-0.2813-1.3438 0-2.0313 1.0782-0.6875 1.0625-0.6875 3.1562 0 2.0938 0.6875 3.1719 0.6875 1.0625 2.0313 1.0625 0.625 0 1.2187-0.2656 0.5938-0.2813 1.2188-0.8594z"/>
  <text x="168.25" y="187.73669" fill="#000000" font-family="sans-serif" font-size="14px" textLength="40">Score</text>
  <line x1="8" x2="336" y1="198.89" y2="198.89" stroke="#181818" stroke-width=".5"/>
  <line x1="8" x2="336" y1="206.89" y2="206.89" stroke="#181818" stroke-width=".5"/>
  <circle cx="18" cy="220.54" r="3" fill="#84be84" stroke="#038048"/>
  <text x="27" y="223.8851" fill="#000000" font-family="sans-serif" font-size="14px" textLength="135">update(delta : float)</text>
  <circle cx="18" cy="236.84" r="3" fill="#84be84" stroke="#038048"/>
  <text x="27" y="240.18201" fill="#000000" font-family="sans-serif" font-size="14px" textLength="126">increment_score()</text>
  <circle cx="18" cy="253.13" r="3" fill="#84be84" stroke="#038048"/>
  <text x="27" y="256.47891" fill="#000000" font-family="sans-serif" font-size="14px" textLength="304">Score(font : Font, position : Vector2&lt;float&gt;)</text>
 </g>
 <g id="l" transform="translate(-142.25 -193.23)">
  <rect id="m" x="478.5" y="323.78" width="299" height="113.19" rx="2.5" ry="2.5" fill="#f1f1f1" stroke="#181818" stroke-width=".5" codeLine="31"/>
  <circle cx="600.25" cy="339.78" r="11" fill="#add1b2" stroke="#181818"/>
  <path d="m603.22 345.42q-0.5782 0.2969-1.2188 0.4375-0.6406 0.1563-1.3437 0.1563-2.5 0-3.8282-1.6406-1.3125-1.6563-1.3125-4.7813t1.3125-4.7812q1.3282-1.6563 3.8282-1.6563 0.7031 0 1.3437 0.1563 0.6563 0.1562 1.2188 0.4531v2.7187q-0.625-0.5781-1.2188-0.8437-0.5937-0.2813-1.2187-0.2813-1.3438 0-2.0313 1.0782-0.6875 1.0625-0.6875 3.1562 0 2.0938 0.6875 3.1719 0.6875 1.0625 2.0313 1.0625 0.625 0 1.2187-0.2656 0.5938-0.2813 1.2188-0.8594z"/>
  <text x="620.75" y="344.62671" fill="#000000" font-family="sans-serif" font-size="14px" textLength="47">Paddle</text>
  <line x1="479.5" x2="776.5" y1="355.78" y2="355.78" stroke="#181818" stroke-width=".5"/>
  <line x1="479.5" x2="776.5" y1="363.78" y2="363.78" stroke="#181818" stroke-width=".5"/>
  <circle cx="489.5" cy="377.43" r="3" fill="#84be84" stroke="#038048"/>
  <text x="498.5" y="380.77509" fill="#000000" font-family="sans-serif" font-size="14px" textLength="73">move_up()</text>
  <circle cx="489.5" cy="393.73" r="3" fill="#84be84" stroke="#038048"/>
  <text x="498.5" y="397.07199" fill="#000000" font-family="sans-serif" font-size="14px" textLength="93">move_down()</text>
  <circle cx="489.5" cy="410.02" r="3" fill="#84be84" stroke="#038048"/>
  <text x="498.5" y="413.3689" fill="#000000" font-family="sans-serif" font-size="14px" textLength="86">move_stop()</text>
  <circle cx="489.5" cy="426.32" r="3" fill="#84be84" stroke="#038048"/>
  <text x="498.5" y="429.66571" fill="#000000" font-family="sans-serif" font-size="14px" textLength="273">Paddle(initial_position : Vector2&lt;float&gt;)</text>
 </g>
 <g id="n" transform="translate(-811.75 -201.38)">
  <rect id="o" x="812" y="331.93" width="276" height="96.891" rx="2.5" ry="2.5" fill="#f1f1f1" stroke="#181818" stroke-width=".5" codeLine="38"/>
  <circle cx="933.75" cy="347.93" r="11" fill="#add1b2" stroke="#181818"/>
  <path d="m936.72 353.57q-0.5782 0.2969-1.2188 0.4375-0.6406 0.1563-1.3437 0.1563-2.5 0-3.8282-1.6406-1.3125-1.6563-1.3125-4.7813t1.3125-4.7812q1.3282-1.6563 3.8282-1.6563 0.7031 0 1.3437 0.1563 0.6563 0.1562 1.2188 0.4531v2.7187q-0.625-0.5781-1.2188-0.8437-0.5937-0.2813-1.2187-0.2813-1.3438 0-2.0313 1.0782-0.6875 1.0625-0.6875 3.1562 0 2.0938 0.6875 3.1719 0.6875 1.0625 2.0313 1.0625 0.625 0 1.2187-0.2656 0.5938-0.2813 1.2188-0.8594z"/>
  <text x="954.25" y="352.7767" fill="#000000" font-family="sans-serif" font-size="14px" textLength="24">Ball</text>
  <line x1="813" x2="1087" y1="363.93" y2="363.93" stroke="#181818" stroke-width=".5"/>
  <line x1="813" x2="1087" y1="371.93" y2="371.93" stroke="#181818" stroke-width=".5"/>
  <circle cx="823" cy="385.58" r="3" fill="#84be84" stroke="#038048"/>
  <text x="832" y="388.92511" fill="#000000" font-family="sans-serif" font-size="14px" textLength="77">bounce_x()</text>
  <circle cx="823" cy="401.88" r="3" fill="#84be84" stroke="#038048"/>
  <text x="832" y="405.22198" fill="#000000" font-family="sans-serif" font-size="14px" textLength="77">bounce_y()</text>
  <circle cx="823" cy="418.17" r="3" fill="#84be84" stroke="#038048"/>
  <text x="832" y="421.51889" fill="#000000" font-family="sans-serif" font-size="14px" textLength="250">Ball(initial_position : Vector2&lt;float&gt;)</text>
 </g>
 <g id="p" transform="translate(-139.75 287.38)">
  <rect id="q" x="993.5" y="26.3" width="77" height="64.297" rx="2.5" ry="2.5" fill="#f1f1f1" stroke="#181818" stroke-width=".5" codeLine="44"/>
  <circle cx="1010.3" cy="42.3" r="11" fill="#add1b2" stroke="#181818"/>
  <path d="m1013.3 47.941q-0.5782 0.2969-1.2188 0.4375-0.6406 0.1563-1.3437 0.1563-2.5 0-3.8282-1.6406-1.3125-1.6563-1.3125-4.7813t1.3125-4.7812q1.3282-1.6563 3.8282-1.6563 0.7031 0 1.3437 0.1563 0.6563 0.1562 1.2188 0.4531v2.7187q-0.625-0.5781-1.2188-0.8437-0.5937-0.2813-1.2187-0.2813-1.3438 0-2.0313 1.0782-0.6875 1.0625-0.6875 3.1562 0 2.0938 0.6875 3.1719 0.6875 1.0625 2.0313 1.0625 0.625 0 1.2187-0.2656 0.5938-0.2813 1.2188-0.8594z"/>
  <text x="1024.7" y="47.146702" fill="#000000" font-family="sans-serif" font-size="14px" textLength="41">Game</text>
  <line x1="994.5" x2="1069.5" y1="58.3" y2="58.3" stroke="#181818" stroke-width=".5"/>
  <line x1="994.5" x2="1069.5" y1="66.3" y2="66.3" stroke="#181818" stroke-width=".5"/>
  <circle cx="1004.5" cy="79.948" r="3" fill="#84be84" stroke="#038048"/>
  <text x="1013.5" y="83.295097" fill="#000000" font-family="sans-serif" font-size="14px" textLength="51">Game()</text>
 </g>
 <g transform="translate(-240.48 -503.66)" stroke="#181818">
  <path d="m429.63 1155.1c-112.87-45.923-37.799-270.37 57.415-287.61" fill="none" codeLine="48" sodipodi:nodetypes="cc"/>
  <polygon transform="rotate(143.54 477.8 562.39)" points="866.06 116.7 866.66 111.07 872.29 111.67 863.52 107.18" fill="#181818"/>
 </g>
 <g transform="matrix(-1 0 0 1 1207.8 -503.66)" stroke="#181818">
  <path d="m434.89 1157c-112.87-45.923-43.057-272.21 52.158-289.46" fill="none" codeLine="48" sodipodi:nodetypes="cc"/>
  <polygon transform="rotate(159.7 558.85 596.4)" points="863.52 107.18 866.06 116.7 866.66 111.07 872.29 111.67" fill="#181818"/>
 </g>
 <g transform="matrix(1 0 0 -1 -733.73 1106.4)" stroke="#181818">
  <path d="m1219.2 863.77 0.2246-53.111" fill="none" stroke-dasharray="7, 7" codeLine="53" sodipodi:nodetypes="cc"/>
  <polygon transform="rotate(-59.176 1405.9 -309.33)" points="351.67 107.28 357.2 99.13 347.45 100.49 352.95 101.77" fill="#181818"/>
 </g>
 <g transform="translate(-733.73 -731.6)" stroke="#181818">
  <path d="m1219.2 863.77 0.2246-53.111" fill="none" stroke-dasharray="7, 7" codeLine="53" sodipodi:nodetypes="cc"/>
  <polygon transform="rotate(-59.176 1405.9 -309.33)" points="357.2 99.13 347.45 100.49 352.95 101.77 351.67 107.28" fill="#181818"/>
 </g>
 <g id="r" transform="matrix(1 0 0 -1 -183.7 866.09)" stroke="#181818">
  <path id="s" d="m522.19 267.97 67.153 52.711" fill="none" stroke-dasharray="7, 7" codeLine="57" sodipodi:nodetypes="cc"/>
  <polygon transform="rotate(-20.2 573.43 337.25)" points="547.53 252 553.05 253.24 544.86 247.77 546.28 257.52" fill="#181818"/>
  <g transform="matrix(-1 0 0 1 1338.7 0)">
   <path d="m502.42 260.52 86.932 60.17" fill="none" stroke-dasharray="7, 7" codeLine="57" sodipodi:nodetypes="cc"/>
   <polygon transform="rotate(-20.2 541.02 389.11)" points="553.05 253.24 544.86 247.77 546.28 257.52 547.53 252" fill="#181818"/>
  </g>
 </g>
 <g transform="matrix(1 0 0 .84847 -582.55 82.54)" stroke="#181818" stroke-width="1.0856">
  <path id="t" d="m713.08 173.85s-8.577 91.236 28.181 114.64c32.701 20.82 79.733 7.558 79.733 7.558" fill="none" stroke-dasharray="7.5994, 7.5994" codeLine="60" sodipodi:nodetypes="csc"/>
  <polygon transform="matrix(-.50893 .83031 -.72864 -.77613 1317.6 -20.957)" points="612.12 249.76 617.29 247.46 607.45 247.97 614.42 254.93" fill="#181818"/>
 </g>
 <g transform="matrix(1 0 0 -1 -582.78 291.44)" stroke="#181818">
  <path d="m710.64 164.3c-0.16174-2.1393-0.43039 50.835 36.328 74.238 32.701 20.82 157.94 20.242 157.94 20.242" fill="none" stroke-dasharray="7, 7" codeLine="60" sodipodi:nodetypes="csc"/>
  <polygon transform="rotate(159.17 759.34 281.63)" points="612.12 249.76 617.29 247.46 607.45 247.97 614.42 254.93" fill="#181818"/>
 </g>
 <path d="m894.98 128.4s4.9983-53.504-31.76-76.907c-32.701-20.82-212.07-18.868-212.07-18.868" fill="none" stroke="#181818" stroke-dasharray="7, 7" codeLine="60" sodipodi:nodetypes="csc"/>
 <polygon transform="rotate(-20.833 38.485 45.386)" points="607.45 247.97 614.42 254.93 612.12 249.76 617.29 247.46" fill="#181818" stroke="#181818"/>
 <text transform="rotate(-90)" x="-702.43903" y="1062.2838" font-family="sans-serif" font-size="18.667px" style="line-height:1.25" xml:space="preserve"><tspan x="-702.43903" y="1062.2838" fill="#000000" sodipodi:role="line">O. W. D. ~ 26/09/2024</tspan><tspan x="-702.43903" y="1085.6172" fill="#808080" font-style="italic" sodipodi:role="line">https://github.com/oliverdixon/sfml-pong</tspan></text>
</svg>
